<svg id="LOGO" xmlns="http://www.w3.org/2000/svg" xmlns:xlink="http://www.w3.org/1999/xlink" width="116.973" height="60" viewBox="0 0 116.973 60">
  <defs>
    <clipPath id="clip-path">
      <rect id="Rectangle_1" data-name="Rectangle 1" width="116.973" height="59.999" fill="none"/>
    </clipPath>
  </defs>
  <path id="Path_1" data-name="Path 1" d="M32.8,26.758l-.746-4.194,9.423.254-8.191,4.728ZM22.321,21.593l.441-.811,3.26-2.745,4.492,8.284Zm8.924-3.577,10.1,3.082-9.506.252Zm-4.282-.774,2.595-2.181,2.38,10.285Zm4.051-.529-.446-2.5,1.946-1.638,2.394.864.448,2.507-1.95,1.641ZM38.995,19.6l4.931-8.032v9.458L43,21.052ZM28.084,10.966l3.186,1.151-7.718,7.209Zm6.567,7.064,7.718-7.2-4.534,8.36ZM22,9.12l.922-.023,4.007,1.449L22,18.58Zm2.579-.067,9.5-.256.594,3.337ZM33.985,4.8l4.973,8.1-2.593,2.184Zm1.421-.975L43.6,8.556l-.439.813L39.9,12.115ZM24.442,7.332,32.636,2.6l.481.786.746,4.194ZM33.331,0,20.091,7.216l-.372,15.075,12.87,7.859,13.24-7.216L46.2,7.859Z" transform="translate(25.525)" fill="#b02a16"/>
  <path id="Path_2" data-name="Path 2" d="M33.413,17.469v7.655H25.448V17.469H21.132V37.1h4.316V29.44h7.965V37.1h4.316V17.469Z" transform="translate(27.387 22.567)" fill="#2c2c2f"/>
  <g id="Group_2" data-name="Group 2" transform="translate(0 0.001)">
    <g id="Group_1" data-name="Group 1" clip-path="url(#clip-path)">
      <path id="Path_3" data-name="Path 3" d="M19.443,17.323a10.1,10.1,0,1,0,10.1,10.1,10.1,10.1,0,0,0-10.1-10.1m0,15.9a5.8,5.8,0,1,1,5.8-5.8,5.806,5.806,0,0,1-5.8,5.8" transform="translate(12.133 22.486)" fill="#2c2c2f"/>
      <path id="Path_4" data-name="Path 4" d="M52.21,17.323a10.1,10.1,0,1,0,10.1,10.1,10.1,10.1,0,0,0-10.1-10.1m0,15.9a5.8,5.8,0,1,1,5.8-5.8,5.806,5.806,0,0,1-5.8,5.8" transform="translate(54.668 22.486)" fill="#2c2c2f"/>
      <path id="Path_5" data-name="Path 5" d="M17.765,17.468H11.9L4.3,25.64V17.468H0V36.99H4.3V31.944L6.754,29.3l5.672,7.689h5.338L9.73,26.1Z" transform="translate(0 22.674)" fill="#2c2c2f"/>
      <path id="Path_6" data-name="Path 6" d="M44.619,17.468V29.444L35.525,17.468H31.568V36.99h4.3V25.013L44.957,36.99h3.957V17.468Z" transform="translate(40.978 22.674)" fill="#2c2c2f"/>
    </g>
  </g>
</svg>
